HIERARCHY
ROOT hip
{
  OFFSET 0 0 0
  CHANNELS 6 Xposition Yposition Zposition Zrotation Yrotation Xrotation
  JOINT abdomen
  {
    OFFSET 0 20.6881 -0.73152
    CHANNELS 3 Zrotation Xrotation Yrotation
    JOINT chest
    {
      OFFSET 0 11.7043 -0.48768
      CHANNELS 3 Zrotation Xrotation Yrotation
      JOINT neck
      {
        OFFSET 0 22.1894 -2.19456
        CHANNELS 3 Zrotation Xrotation Yrotation
        JOINT head
        {
          OFFSET -0.24384 7.07133 1.2192
          CHANNELS 3 Zrotation Xrotation Yrotation
          JOINT leftEye
          {
            OFFSET 4.14528 8.04674 8.04672
            CHANNELS 3 Zrotation Xrotation Yrotation
            End Site
            {
              OFFSET 1 0 0
            }
          }
          JOINT rightEye
          {
            OFFSET -3.6576 8.04674 8.04672
            CHANNELS 3 Zrotation Xrotation Yrotation
            End Site
            {
              OFFSET 1 0 0
            }
          }
        }
      }
      JOINT rCollar
      {
        OFFSET -2.68224 19.2634 -4.8768
        CHANNELS 3 Zrotation Xrotation Yrotation
        JOINT rShldr
        {
          OFFSET -8.77824 -1.95073 1.46304
          CHANNELS 3 Zrotation Xrotation Yrotation
          JOINT rForeArm
          {
            OFFSET -28.1742 -1.7115 0.48768
            CHANNELS 3 Zrotation Xrotation Yrotation
            JOINT rHand
            {
              OFFSET -22.5879 0.773209 7.07136
              CHANNELS 3 Zrotation Xrotation Yrotation
              JOINT rThumb1
              {
                OFFSET -1.2192 -0.487915 3.41376
                CHANNELS 3 Zrotation Xrotation Yrotation
                JOINT rThumb2
                {
                  OFFSET -3.37035 -0.52449 3.41376
                  CHANNELS 3 Zrotation Xrotation Yrotation
                  End Site
                  {
                    OFFSET -1.78271 -1.18214 1.43049
                  }
                }
              }
              JOINT rIndex1
              {
                OFFSET -7.75947 0.938293 5.60832
                CHANNELS 3 Zrotation Xrotation Yrotation
                JOINT rIndex2
                {
                  OFFSET -2.54057 -0.884171 1.56538
                  CHANNELS 3 Zrotation Xrotation Yrotation
                  End Site
                  {
                    OFFSET -1.62519 -0.234802 1.16502
                  }
                }
              }
              JOINT rMid1
              {
                OFFSET -8.24714 1.18213 3.41376
                CHANNELS 3 Zrotation Xrotation Yrotation
                JOINT rMid2
                {
                  OFFSET -3.10165 -0.590103 1.0647
                  CHANNELS 3 Zrotation Xrotation Yrotation
                  End Site
                  {
                    OFFSET -2.48547 -0.328903 0.83742
                  }
                }
              }
              JOINT rRing1
              {
                OFFSET -8.82822 0.546677 1.51678
                CHANNELS 3 Zrotation Xrotation Yrotation
                JOINT rRing2
                {
                  OFFSET -2.60934 -0.819778 -0.0198488
                  CHANNELS 3 Zrotation Xrotation Yrotation
                  End Site
                  {
                    OFFSET -2.33842 -0.294052 0.168128
                  }
                }
              }
              JOINT rPinky1
              {
                OFFSET -8.27202 -0.0477905 -0.4584
                CHANNELS 3 Zrotation Xrotation Yrotation
                JOINT rPinky2
                {
                  OFFSET -1.82734 -0.647385 -0.700984
                  CHANNELS 3 Zrotation Xrotation Yrotation
                  End Site
                  {
                    OFFSET -1.69225 -0.51767 -0.607171
                  }
                }
              }
            }
          }
        }
      }
      JOINT lCollar
      {
        OFFSET 2.68224 19.2634 -4.8768
        CHANNELS 3 Zrotation Xrotation Yrotation
        JOINT lShldr
        {
          OFFSET 8.77824 -1.95073 1.46304
          CHANNELS 3 Zrotation Xrotation Yrotation
          JOINT lForeArm
          {
            OFFSET 28.1742 -1.7115 0.48768
            CHANNELS 3 Zrotation Xrotation Yrotation
            JOINT lHand
            {
              OFFSET 22.5879 0.773209 7.07136
              CHANNELS 3 Zrotation Xrotation Yrotation
              JOINT lThumb1
              {
                OFFSET 1.2192 -0.487915 3.41376
                CHANNELS 3 Zrotation Xrotation Yrotation
                JOINT lThumb2
                {
                  OFFSET 3.37035 -0.52449 3.41376
                  CHANNELS 3 Zrotation Xrotation Yrotation
                  End Site
                  {
                    OFFSET 1.78271 -1.18214 1.43049
                  }
                }
              }
              JOINT lIndex1
              {
                OFFSET 7.75947 0.938293 5.60832
                CHANNELS 3 Zrotation Xrotation Yrotation
                JOINT lIndex2
                {
                  OFFSET 2.54057 -0.884171 1.56538
                  CHANNELS 3 Zrotation Xrotation Yrotation
                  End Site
                  {
                    OFFSET 1.62519 -0.234802 1.16502
                  }
                }
              }
              JOINT lMid1
              {
                OFFSET 8.24714 1.18213 3.41376
                CHANNELS 3 Zrotation Xrotation Yrotation
                JOINT lMid2
                {
                  OFFSET 3.10165 -0.590103 1.0647
                  CHANNELS 3 Zrotation Xrotation Yrotation
                  End Site
                  {
                    OFFSET 2.48547 -0.328903 0.83742
                  }
                }
              }
              JOINT lRing1
              {
                OFFSET 8.82822 0.546677 1.51678
                CHANNELS 3 Zrotation Xrotation Yrotation
                JOINT lRing2
                {
                  OFFSET 2.60934 -0.819778 -0.0198488
                  CHANNELS 3 Zrotation Xrotation Yrotation
                  End Site
                  {
                    OFFSET 2.33842 -0.294052 0.168128
                  }
                }
              }
              JOINT lPinky1
              {
                OFFSET 8.27202 -0.0477905 -0.4584
                CHANNELS 3 Zrotation Xrotation Yrotation
                JOINT lPinky2
                {
                  OFFSET 1.82734 -0.647385 -0.700984
                  CHANNELS 3 Zrotation Xrotation Yrotation
                  End Site
                  {
                    OFFSET 1.69225 -0.51767 -0.607171
                  }
                }
              }
            }
          }
        }
      }
    }
  }
  JOINT rButtock
  {
    OFFSET -8.77824 4.35084 1.2192
    CHANNELS 3 Zrotation Xrotation Yrotation
    JOINT rThigh
    {
      OFFSET 0 -1.70687 -2.19456
      CHANNELS 3 Zrotation Xrotation Yrotation
      JOINT rShin
      {
        OFFSET 0 -36.8199 0.73152
        CHANNELS 3 Zrotation Xrotation Yrotation
        JOINT rFoot
        {
          OFFSET 0.73152 -45.1104 -5.12064
          CHANNELS 3 Zrotation Xrotation Yrotation
          End Site
          {
            OFFSET -1.1221 -3.69964 12.103
          }
        }
      }
    }
  }
  JOINT lButtock
  {
    OFFSET 8.77824 4.35084 1.2192
    CHANNELS 3 Zrotation Xrotation Yrotation
    JOINT lThigh
    {
      OFFSET 0 -1.70687 -2.19456
      CHANNELS 3 Zrotation Xrotation Yrotation
      JOINT lShin
      {
        OFFSET 0 -36.8199 0.73152
        CHANNELS 3 Zrotation Xrotation Yrotation
        JOINT lFoot
        {
          OFFSET -0.73152 -45.1104 -5.12064
          CHANNELS 3 Zrotation Xrotation Yrotation
          End Site
          {
            OFFSET 1.1221 -3.69964 12.103
          }
        }
      }
    }
  }
}
MOTION
Frames:	4
Frame Time:	0.00833333
-27.9383 42.2291 167.373 -142.982 80.8181 -136.17 2.55607 18.5605 16.3576 -5.15815 -14.0964 4.0155 0.55731 14.043 13.22 -0.985336 -21.3461 25.8723 -0.0 0.0 0.0 -0.0 0.0 0.0 2.17087e-13 5.44974e-13 -3.61757e-13 -10.6531 48.8172 76.221 -27.5155 -42.4518 88.4403 -0.0674448 7.39012 1.04447 -8.81077e-10 -3.16221e-08 -3.81747e-09 -1.52759e-09 -5.46806e-08 -6.59778e-09 -8.81076e-10 -3.16221e-08 -3.81748e-09 7.73091 5.47488 0.417314 -8.81075e-10 -3.16221e-08 -3.81746e-09 2.90554 0.965183 0.102902 -8.81078e-10 -3.16221e-08 -3.81747e-09 10.2786 0.731801 0.0259123 -8.81089e-10 -3.16221e-08 -3.81746e-09 2.22167 -0.733487 -0.20892 2.16992e-13 5.44974e-13 -3.61926e-13 -55.9436 8.37022 -19.7535 26.8794 -44.3319 -92.1038 2.19501 -38.1604 6.34046 4.61188e-09 -9.93072e-10 2.33945e-09 7.89409e-09 -1.51535e-09 4.17775e-09 4.61187e-09 -9.93072e-10 2.33946e-09 -7.73091 5.47488 -0.417314 4.61188e-09 -9.93083e-10 2.33945e-09 -2.90554 0.965183 -0.102902 4.61187e-09 -9.93082e-10 2.33945e-09 -10.2786 0.731801 -0.0259123 4.61189e-09 -9.93078e-10 2.33944e-09 -2.22167 -0.733487 0.20892 -2.03217e-16 0.0 -3.88251e-19 -65.506 -46.2978 -53.8081 -174.394 79.5073 176.923 -6.14513 -25.363 -12.4378 2.03217e-16 0.0 3.88251e-19 94.123 -56.9307 70.8825 174.194 78.2899 -175.535 -1.40742 -25.4889 0.149413
-27.9878 42.3486 167.316 -142.754 80.7404 -135.851 2.68886 18.6626 16.2581 -5.14022 -14.1438 3.9948 0.507613 14.048 13.2458 -0.949938 -21.503 25.9304 -0.0 0.0 0.0 -0.0 0.0 0.0 2.32231e-13 5.70909e-13 -4.48359e-13 -10.5839 48.854 76.0671 -27.5313 -42.3973 88.3364 -0.0662049 7.32184 1.03471 -1.05862e-09 -3.57265e-08 -4.34719e-09 -1.83522e-09 -6.17741e-08 -7.51253e-09 -1.05862e-09 -3.57265e-08 -4.3472e-09 7.73091 5.47488 0.417314 -1.05862e-09 -3.57265e-08 -4.34718e-09 2.90554 0.965183 0.102902 -1.05862e-09 -3.57265e-08 -4.34718e-09 10.2786 0.731801 0.0259123 -1.05863e-09 -3.57265e-08 -4.34718e-09 2.22167 -0.733487 -0.20892 2.32096e-13 5.70909e-13 -4.48558e-13 -55.9788 8.37022 -19.7962 26.8902 -44.3031 -92.0486 2.17573 -38.0227 6.3091 5.26895e-09 -1.1486e-09 2.65201e-09 9.01891e-09 -1.75448e-09 4.7378e-09 5.26893e-09 -1.1486e-09 2.65202e-09 -7.73091 5.47488 -0.417314 5.26895e-09 -1.14861e-09 2.65201e-09 -2.90554 0.965183 -0.102902 5.26894e-09 -1.14861e-09 2.65201e-09 -10.2786 0.731801 -0.0259123 5.26896e-09 -1.1486e-09 2.652e-09 -2.22167 -0.733487 0.20892 -2.03217e-16 0.0 -3.88251e-19 -65.1931 -46.3401 -53.6682 -174.259 79.8006 176.78 -6.13377 -25.2451 -12.4594 2.03217e-16 0.0 3.88251e-19 94.0858 -57.0819 70.8258 174.157 78.3939 -175.507 -1.31487 -25.4174 0.300752
-28.0327 42.4844 167.267 -141.976 80.6252 -134.992 2.85331 18.7716 16.1665 -5.12941 -14.1712 3.97833 0.476458 14.0484 13.2716 -0.950311 -21.6712 25.9813 -0.0 0.0 0.0 -0.0 0.0 0.0 1.92344e-13 5.52223e-13 -3.42313e-13 -10.4946 48.866 75.8777 -27.549 -42.3351 88.2184 -0.0650629 7.25877 1.0257 -9.75084e-10 -2.34673e-08 -2.86151e-09 -1.68696e-09 -4.05687e-08 -4.9445e-09 -9.75084e-10 -2.34673e-08 -2.86152e-09 7.73091 5.47488 0.417314 -9.75084e-10 -2.34673e-08 -2.8615e-09 2.90554 0.965183 0.102902 -9.75084e-10 -2.34673e-08 -2.86151e-09 10.2786 0.731801 0.0259123 -9.75094e-10 -2.34673e-08 -2.8615e-09 2.22167 -0.733487 -0.20892 1.92213e-13 5.52224e-13 -3.42509e-13 -56.0007 8.36074 -19.8857 26.9044 -44.2666 -91.9761 2.16522 -37.947 6.29193 3.88971e-09 -8.99298e-10 1.90754e-09 6.65891e-09 -1.38246e-09 3.41263e-09 3.88969e-09 -8.99299e-10 1.90755e-09 -7.73091 5.47488 -0.417314 3.8897e-09 -8.99309e-10 1.90754e-09 -2.90554 0.965183 -0.102902 3.8897e-09 -8.99309e-10 1.90754e-09 -10.2786 0.731801 -0.0259123 3.88972e-09 -8.99305e-10 1.90754e-09 -2.22167 -0.733487 0.20892 -2.03217e-16 0.0 -3.88251e-19 -64.7942 -46.4074 -53.4684 -174.099 80.1281 176.612 -6.12646 -25.107 -12.4964 2.03217e-16 0.0 3.88251e-19 94.0557 -57.2229 70.7571 174.115 78.5058 -175.472 -1.23264 -25.3546 0.432299
-28.0785 42.6307 167.206 -141.244 80.5007 -134.169 3.03373 18.8908 16.0792 -5.12234 -14.1878 3.9642 0.45368 14.0458 13.2986 -0.968328 -21.85 26.0313 -0.0 0.0 0.0 -0.0 0.0 0.0 1.14691e-13 5.0034e-13 -1.10847e-13 -10.3864 48.8626 75.6554 -27.5675 -42.2685 88.0928 -0.0638994 7.19397 1.01645 -7.22557e-10 -3.40078e-10 -3.66764e-11 -1.24351e-09 -5.68107e-10 -6.22469e-11 -7.22557e-10 -3.40076e-10 -3.66898e-11 7.73091 5.47488 0.417314 -7.22558e-10 -3.40084e-10 -3.66762e-11 2.90554 0.965183 0.102902 -7.22553e-10 -3.40075e-10 -3.66762e-11 10.2786 0.731801 0.0259123 -7.22563e-10 -3.40076e-10 -3.66718e-11 2.22167 -0.733487 -0.20892 1.14589e-13 5.00341e-13 -1.11024e-13 -56.0106 8.34408 -20.0149 26.9217 -44.2219 -91.8864 2.15942 -37.9049 6.28242 1.15925e-09 -3.82201e-10 4.60597e-10 1.98657e-09 -6.06347e-10 8.3462e-10 1.15924e-09 -3.822e-10 4.60602e-10 -7.73091 5.47488 -0.417314 1.15925e-09 -3.82207e-10 4.60603e-10 -2.90554 0.965183 -0.102902 1.15924e-09 -3.82207e-10 4.606e-10 -10.2786 0.731801 -0.0259123 1.15926e-09 -3.82204e-10 4.60598e-10 -2.22167 -0.733487 0.20892 -2.03217e-16 0.0 -3.88251e-19 -64.3347 -46.4923 -53.2228 -173.912 80.4854 176.416 -6.11901 -24.9517 -12.5402 2.03217e-16 0.0 3.88251e-19 94.0173 -57.3627 70.6724 174.067 78.6279 -175.429 -1.15832 -25.296 0.548907
